<mxfile host="Electron" modified="2024-02-21T14:45:27.073Z" agent="Mozilla/5.0 (Windows NT 10.0; Win64; x64) AppleWebKit/537.36 (KHTML, like Gecko) draw.io/22.1.21 Chrome/120.0.6099.109 Electron/28.1.0 Safari/537.36" etag="MBf7NzSFmnXiWHZMTNvI" version="22.1.21" type="device">
  <diagram name="第 1 页" id="RjFs4FHUPHLiOyL0ZAF_">
    <mxGraphModel dx="1434" dy="844" grid="1" gridSize="10" guides="1" tooltips="1" connect="1" arrows="1" fold="1" page="1" pageScale="1" pageWidth="827" pageHeight="1169" math="0" shadow="0">
      <root>
        <mxCell id="0" />
        <mxCell id="1" parent="0" />
        <mxCell id="KEK-sTngG19rM-lHNqfz-2" value="" style="edgeStyle=orthogonalEdgeStyle;rounded=0;orthogonalLoop=1;jettySize=auto;html=1;" edge="1" parent="1" source="PM5l2Y6mUOyiycwpW1XM-1" target="KEK-sTngG19rM-lHNqfz-1">
          <mxGeometry relative="1" as="geometry" />
        </mxCell>
        <mxCell id="PM5l2Y6mUOyiycwpW1XM-1" value="DefaultMQProducer#send" style="rounded=0;whiteSpace=wrap;html=1;" parent="1" vertex="1">
          <mxGeometry x="300" y="190" width="180" height="60" as="geometry" />
        </mxCell>
        <mxCell id="KEK-sTngG19rM-lHNqfz-8" value="" style="edgeStyle=orthogonalEdgeStyle;rounded=0;orthogonalLoop=1;jettySize=auto;html=1;" edge="1" parent="1" source="KEK-sTngG19rM-lHNqfz-1" target="KEK-sTngG19rM-lHNqfz-7">
          <mxGeometry relative="1" as="geometry" />
        </mxCell>
        <mxCell id="KEK-sTngG19rM-lHNqfz-1" value="DefaultMQProducerImpl#send" style="rounded=0;whiteSpace=wrap;html=1;" vertex="1" parent="1">
          <mxGeometry x="300" y="310" width="180" height="60" as="geometry" />
        </mxCell>
        <mxCell id="KEK-sTngG19rM-lHNqfz-4" value="" style="edgeStyle=orthogonalEdgeStyle;rounded=0;orthogonalLoop=1;jettySize=auto;html=1;" edge="1" parent="1" source="KEK-sTngG19rM-lHNqfz-3" target="PM5l2Y6mUOyiycwpW1XM-1">
          <mxGeometry relative="1" as="geometry" />
        </mxCell>
        <mxCell id="KEK-sTngG19rM-lHNqfz-3" value="同步发送" style="ellipse;whiteSpace=wrap;html=1;" vertex="1" parent="1">
          <mxGeometry x="330" y="80" width="120" height="80" as="geometry" />
        </mxCell>
        <mxCell id="KEK-sTngG19rM-lHNqfz-10" value="" style="edgeStyle=orthogonalEdgeStyle;rounded=0;orthogonalLoop=1;jettySize=auto;html=1;" edge="1" parent="1" source="KEK-sTngG19rM-lHNqfz-7" target="KEK-sTngG19rM-lHNqfz-9">
          <mxGeometry relative="1" as="geometry" />
        </mxCell>
        <mxCell id="KEK-sTngG19rM-lHNqfz-7" value="DefaultMQProducerImpl#sendDefaultImpl" style="rounded=0;whiteSpace=wrap;html=1;" vertex="1" parent="1">
          <mxGeometry x="800" y="310" width="270" height="60" as="geometry" />
        </mxCell>
        <mxCell id="KEK-sTngG19rM-lHNqfz-12" value="" style="edgeStyle=orthogonalEdgeStyle;rounded=0;orthogonalLoop=1;jettySize=auto;html=1;" edge="1" parent="1" source="KEK-sTngG19rM-lHNqfz-9" target="KEK-sTngG19rM-lHNqfz-11">
          <mxGeometry relative="1" as="geometry" />
        </mxCell>
        <mxCell id="KEK-sTngG19rM-lHNqfz-9" value="获取topic信息" style="whiteSpace=wrap;html=1;rounded=0;" vertex="1" parent="1">
          <mxGeometry x="875" y="450" width="120" height="60" as="geometry" />
        </mxCell>
        <mxCell id="KEK-sTngG19rM-lHNqfz-14" value="" style="edgeStyle=orthogonalEdgeStyle;rounded=0;orthogonalLoop=1;jettySize=auto;html=1;" edge="1" parent="1" source="KEK-sTngG19rM-lHNqfz-11" target="KEK-sTngG19rM-lHNqfz-13">
          <mxGeometry relative="1" as="geometry" />
        </mxCell>
        <mxCell id="KEK-sTngG19rM-lHNqfz-11" value="从topic中对应的messageQueue中获选择一个合适的queue&lt;br&gt;selectOneMessageQueue" style="whiteSpace=wrap;html=1;rounded=0;" vertex="1" parent="1">
          <mxGeometry x="827" y="590" width="215" height="60" as="geometry" />
        </mxCell>
        <mxCell id="KEK-sTngG19rM-lHNqfz-16" value="" style="edgeStyle=orthogonalEdgeStyle;rounded=0;orthogonalLoop=1;jettySize=auto;html=1;" edge="1" parent="1" source="KEK-sTngG19rM-lHNqfz-13" target="KEK-sTngG19rM-lHNqfz-15">
          <mxGeometry relative="1" as="geometry" />
        </mxCell>
        <mxCell id="KEK-sTngG19rM-lHNqfz-13" value="从topic中对应的messageQueue中获选择一个合适的queue&lt;br&gt;selectOneMessageQueue" style="whiteSpace=wrap;html=1;rounded=0;" vertex="1" parent="1">
          <mxGeometry x="827" y="730" width="215" height="60" as="geometry" />
        </mxCell>
        <mxCell id="KEK-sTngG19rM-lHNqfz-18" value="" style="edgeStyle=orthogonalEdgeStyle;rounded=0;orthogonalLoop=1;jettySize=auto;html=1;" edge="1" parent="1" source="KEK-sTngG19rM-lHNqfz-15" target="KEK-sTngG19rM-lHNqfz-17">
          <mxGeometry relative="1" as="geometry" />
        </mxCell>
        <mxCell id="KEK-sTngG19rM-lHNqfz-15" value="内核实现&lt;br&gt;sendKernelImpl" style="whiteSpace=wrap;html=1;rounded=0;" vertex="1" parent="1">
          <mxGeometry x="874.5" y="870" width="120" height="60" as="geometry" />
        </mxCell>
        <mxCell id="KEK-sTngG19rM-lHNqfz-20" value="" style="edgeStyle=orthogonalEdgeStyle;rounded=0;orthogonalLoop=1;jettySize=auto;html=1;" edge="1" parent="1" source="KEK-sTngG19rM-lHNqfz-17" target="KEK-sTngG19rM-lHNqfz-19">
          <mxGeometry relative="1" as="geometry" />
        </mxCell>
        <mxCell id="KEK-sTngG19rM-lHNqfz-17" value="获取broker地址&lt;br&gt;findBrokerAddressInPublish" style="whiteSpace=wrap;html=1;rounded=0;" vertex="1" parent="1">
          <mxGeometry x="1074.5" y="870" width="205.5" height="60" as="geometry" />
        </mxCell>
        <mxCell id="KEK-sTngG19rM-lHNqfz-22" value="" style="edgeStyle=orthogonalEdgeStyle;rounded=0;orthogonalLoop=1;jettySize=auto;html=1;" edge="1" parent="1" source="KEK-sTngG19rM-lHNqfz-19" target="KEK-sTngG19rM-lHNqfz-21">
          <mxGeometry relative="1" as="geometry" />
        </mxCell>
        <mxCell id="KEK-sTngG19rM-lHNqfz-19" value="消息标志处理，事务？重试？延迟？" style="whiteSpace=wrap;html=1;rounded=0;" vertex="1" parent="1">
          <mxGeometry x="1074.5" y="1010" width="205.5" height="60" as="geometry" />
        </mxCell>
        <mxCell id="KEK-sTngG19rM-lHNqfz-24" value="" style="edgeStyle=orthogonalEdgeStyle;rounded=0;orthogonalLoop=1;jettySize=auto;html=1;" edge="1" parent="1" source="KEK-sTngG19rM-lHNqfz-21" target="KEK-sTngG19rM-lHNqfz-23">
          <mxGeometry relative="1" as="geometry" />
        </mxCell>
        <mxCell id="KEK-sTngG19rM-lHNqfz-21" value="组装请求头&lt;br&gt;SendMessageRequestHeader" style="whiteSpace=wrap;html=1;rounded=0;" vertex="1" parent="1">
          <mxGeometry x="1074.5" y="1150" width="205.5" height="60" as="geometry" />
        </mxCell>
        <mxCell id="KEK-sTngG19rM-lHNqfz-26" value="" style="edgeStyle=orthogonalEdgeStyle;rounded=0;orthogonalLoop=1;jettySize=auto;html=1;" edge="1" parent="1" source="KEK-sTngG19rM-lHNqfz-23" target="KEK-sTngG19rM-lHNqfz-25">
          <mxGeometry relative="1" as="geometry" />
        </mxCell>
        <mxCell id="KEK-sTngG19rM-lHNqfz-28" value="" style="edgeStyle=orthogonalEdgeStyle;rounded=0;orthogonalLoop=1;jettySize=auto;html=1;" edge="1" parent="1" source="KEK-sTngG19rM-lHNqfz-23" target="KEK-sTngG19rM-lHNqfz-27">
          <mxGeometry relative="1" as="geometry" />
        </mxCell>
        <mxCell id="KEK-sTngG19rM-lHNqfz-32" value="" style="edgeStyle=orthogonalEdgeStyle;rounded=0;orthogonalLoop=1;jettySize=auto;html=1;" edge="1" parent="1" source="KEK-sTngG19rM-lHNqfz-23" target="KEK-sTngG19rM-lHNqfz-31">
          <mxGeometry relative="1" as="geometry" />
        </mxCell>
        <mxCell id="KEK-sTngG19rM-lHNqfz-23" value="消息发送" style="whiteSpace=wrap;html=1;rounded=0;" vertex="1" parent="1">
          <mxGeometry x="1117.25" y="1290" width="120" height="60" as="geometry" />
        </mxCell>
        <mxCell id="KEK-sTngG19rM-lHNqfz-30" value="" style="edgeStyle=orthogonalEdgeStyle;rounded=0;orthogonalLoop=1;jettySize=auto;html=1;" edge="1" parent="1" source="KEK-sTngG19rM-lHNqfz-25" target="KEK-sTngG19rM-lHNqfz-29">
          <mxGeometry relative="1" as="geometry" />
        </mxCell>
        <mxCell id="KEK-sTngG19rM-lHNqfz-25" value="ASYNC" style="whiteSpace=wrap;html=1;rounded=0;" vertex="1" parent="1">
          <mxGeometry x="1117.25" y="1430" width="120" height="60" as="geometry" />
        </mxCell>
        <mxCell id="KEK-sTngG19rM-lHNqfz-34" value="" style="edgeStyle=orthogonalEdgeStyle;rounded=0;orthogonalLoop=1;jettySize=auto;html=1;" edge="1" parent="1" source="KEK-sTngG19rM-lHNqfz-27" target="KEK-sTngG19rM-lHNqfz-33">
          <mxGeometry relative="1" as="geometry" />
        </mxCell>
        <mxCell id="KEK-sTngG19rM-lHNqfz-27" value="ONEWAY" style="whiteSpace=wrap;html=1;rounded=0;" vertex="1" parent="1">
          <mxGeometry x="1353.63" y="1250" width="120" height="60" as="geometry" />
        </mxCell>
        <mxCell id="KEK-sTngG19rM-lHNqfz-37" value="" style="edgeStyle=orthogonalEdgeStyle;rounded=0;orthogonalLoop=1;jettySize=auto;html=1;exitX=1;exitY=0.5;exitDx=0;exitDy=0;" edge="1" parent="1" source="KEK-sTngG19rM-lHNqfz-29" target="KEK-sTngG19rM-lHNqfz-36">
          <mxGeometry relative="1" as="geometry">
            <mxPoint x="1660" y="1590" as="sourcePoint" />
          </mxGeometry>
        </mxCell>
        <mxCell id="KEK-sTngG19rM-lHNqfz-29" value="this.mQClientFactory.getMQClientAPIImpl().sendMessage&amp;nbsp; 8个参数" style="whiteSpace=wrap;html=1;rounded=0;" vertex="1" parent="1">
          <mxGeometry x="992.6899999999999" y="1560" width="369.12" height="60" as="geometry" />
        </mxCell>
        <mxCell id="KEK-sTngG19rM-lHNqfz-35" style="edgeStyle=orthogonalEdgeStyle;rounded=0;orthogonalLoop=1;jettySize=auto;html=1;entryX=0;entryY=0.5;entryDx=0;entryDy=0;" edge="1" parent="1" source="KEK-sTngG19rM-lHNqfz-31" target="KEK-sTngG19rM-lHNqfz-33">
          <mxGeometry relative="1" as="geometry" />
        </mxCell>
        <mxCell id="KEK-sTngG19rM-lHNqfz-31" value="SYNC" style="whiteSpace=wrap;html=1;rounded=0;" vertex="1" parent="1">
          <mxGeometry x="1353.63" y="1340" width="120" height="60" as="geometry" />
        </mxCell>
        <mxCell id="KEK-sTngG19rM-lHNqfz-33" value="org.apache.rocketmq.client.impl.MQClientAPIImpl#sendMessage" style="whiteSpace=wrap;html=1;rounded=0;" vertex="1" parent="1">
          <mxGeometry x="1553.63" y="1290" width="386.37" height="60" as="geometry" />
        </mxCell>
        <mxCell id="KEK-sTngG19rM-lHNqfz-39" value="" style="edgeStyle=orthogonalEdgeStyle;rounded=0;orthogonalLoop=1;jettySize=auto;html=1;" edge="1" parent="1" source="KEK-sTngG19rM-lHNqfz-36" target="KEK-sTngG19rM-lHNqfz-38">
          <mxGeometry relative="1" as="geometry" />
        </mxCell>
        <mxCell id="KEK-sTngG19rM-lHNqfz-36" value="1.创建command:SendMessageRequestHeaderV2" style="whiteSpace=wrap;html=1;rounded=0;" vertex="1" parent="1">
          <mxGeometry x="1778.19" y="1560" width="369.12" height="60" as="geometry" />
        </mxCell>
        <mxCell id="KEK-sTngG19rM-lHNqfz-41" value="" style="edgeStyle=orthogonalEdgeStyle;rounded=0;orthogonalLoop=1;jettySize=auto;html=1;" edge="1" parent="1" source="KEK-sTngG19rM-lHNqfz-38" target="KEK-sTngG19rM-lHNqfz-40">
          <mxGeometry relative="1" as="geometry" />
        </mxCell>
        <mxCell id="KEK-sTngG19rM-lHNqfz-38" value="2.消息发送" style="whiteSpace=wrap;html=1;rounded=0;" vertex="1" parent="1">
          <mxGeometry x="1902.75" y="1700" width="120" height="60" as="geometry" />
        </mxCell>
        <mxCell id="KEK-sTngG19rM-lHNqfz-43" value="" style="edgeStyle=orthogonalEdgeStyle;rounded=0;orthogonalLoop=1;jettySize=auto;html=1;" edge="1" parent="1" source="KEK-sTngG19rM-lHNqfz-40" target="KEK-sTngG19rM-lHNqfz-42">
          <mxGeometry relative="1" as="geometry" />
        </mxCell>
        <mxCell id="KEK-sTngG19rM-lHNqfz-47" value="" style="edgeStyle=orthogonalEdgeStyle;rounded=0;orthogonalLoop=1;jettySize=auto;html=1;" edge="1" parent="1" source="KEK-sTngG19rM-lHNqfz-40" target="KEK-sTngG19rM-lHNqfz-46">
          <mxGeometry relative="1" as="geometry" />
        </mxCell>
        <mxCell id="KEK-sTngG19rM-lHNqfz-49" value="" style="edgeStyle=orthogonalEdgeStyle;rounded=0;orthogonalLoop=1;jettySize=auto;html=1;" edge="1" parent="1" source="KEK-sTngG19rM-lHNqfz-40" target="KEK-sTngG19rM-lHNqfz-48">
          <mxGeometry relative="1" as="geometry" />
        </mxCell>
        <mxCell id="KEK-sTngG19rM-lHNqfz-40" value="模式" style="rhombus;whiteSpace=wrap;html=1;rounded=0;" vertex="1" parent="1">
          <mxGeometry x="1922.75" y="1830" width="80" height="80" as="geometry" />
        </mxCell>
        <mxCell id="KEK-sTngG19rM-lHNqfz-45" value="" style="edgeStyle=orthogonalEdgeStyle;rounded=0;orthogonalLoop=1;jettySize=auto;html=1;" edge="1" parent="1" source="KEK-sTngG19rM-lHNqfz-42" target="KEK-sTngG19rM-lHNqfz-44">
          <mxGeometry relative="1" as="geometry" />
        </mxCell>
        <mxCell id="KEK-sTngG19rM-lHNqfz-42" value="ONEWAY" style="whiteSpace=wrap;html=1;rounded=0;" vertex="1" parent="1">
          <mxGeometry x="1540" y="1840" width="120" height="60" as="geometry" />
        </mxCell>
        <mxCell id="KEK-sTngG19rM-lHNqfz-66" value="" style="edgeStyle=orthogonalEdgeStyle;rounded=0;orthogonalLoop=1;jettySize=auto;html=1;" edge="1" parent="1" source="KEK-sTngG19rM-lHNqfz-44" target="KEK-sTngG19rM-lHNqfz-65">
          <mxGeometry relative="1" as="geometry" />
        </mxCell>
        <mxCell id="KEK-sTngG19rM-lHNqfz-44" value="invokeOneway" style="whiteSpace=wrap;html=1;rounded=0;" vertex="1" parent="1">
          <mxGeometry x="1540" y="2060" width="120" height="60" as="geometry" />
        </mxCell>
        <mxCell id="KEK-sTngG19rM-lHNqfz-53" value="" style="edgeStyle=orthogonalEdgeStyle;rounded=0;orthogonalLoop=1;jettySize=auto;html=1;" edge="1" parent="1" source="KEK-sTngG19rM-lHNqfz-46" target="KEK-sTngG19rM-lHNqfz-52">
          <mxGeometry relative="1" as="geometry" />
        </mxCell>
        <mxCell id="KEK-sTngG19rM-lHNqfz-46" value="ASYNC" style="whiteSpace=wrap;html=1;rounded=0;" vertex="1" parent="1">
          <mxGeometry x="1902.75" y="1940" width="120" height="60" as="geometry" />
        </mxCell>
        <mxCell id="KEK-sTngG19rM-lHNqfz-51" value="" style="edgeStyle=orthogonalEdgeStyle;rounded=0;orthogonalLoop=1;jettySize=auto;html=1;" edge="1" parent="1" source="KEK-sTngG19rM-lHNqfz-48" target="KEK-sTngG19rM-lHNqfz-50">
          <mxGeometry relative="1" as="geometry" />
        </mxCell>
        <mxCell id="KEK-sTngG19rM-lHNqfz-48" value="SYNC" style="whiteSpace=wrap;html=1;rounded=0;" vertex="1" parent="1">
          <mxGeometry x="2300" y="1840" width="120" height="60" as="geometry" />
        </mxCell>
        <mxCell id="KEK-sTngG19rM-lHNqfz-72" value="" style="edgeStyle=orthogonalEdgeStyle;rounded=0;orthogonalLoop=1;jettySize=auto;html=1;" edge="1" parent="1" source="KEK-sTngG19rM-lHNqfz-50" target="KEK-sTngG19rM-lHNqfz-71">
          <mxGeometry relative="1" as="geometry" />
        </mxCell>
        <mxCell id="KEK-sTngG19rM-lHNqfz-50" value="sendMessageSync" style="whiteSpace=wrap;html=1;rounded=0;" vertex="1" parent="1">
          <mxGeometry x="2300" y="2060" width="120" height="60" as="geometry" />
        </mxCell>
        <mxCell id="KEK-sTngG19rM-lHNqfz-56" value="" style="edgeStyle=orthogonalEdgeStyle;rounded=0;orthogonalLoop=1;jettySize=auto;html=1;" edge="1" parent="1" source="KEK-sTngG19rM-lHNqfz-52" target="KEK-sTngG19rM-lHNqfz-55">
          <mxGeometry relative="1" as="geometry" />
        </mxCell>
        <mxCell id="KEK-sTngG19rM-lHNqfz-52" value="sendMessageAsync" style="whiteSpace=wrap;html=1;rounded=0;" vertex="1" parent="1">
          <mxGeometry x="1902.75" y="2060" width="120" height="60" as="geometry" />
        </mxCell>
        <mxCell id="KEK-sTngG19rM-lHNqfz-54" value="MQClientAPIImpl#sendMessageAsync" style="text;html=1;align=center;verticalAlign=middle;resizable=0;points=[];autosize=1;strokeColor=#82b366;fillColor=#d5e8d4;" vertex="1" parent="1">
          <mxGeometry x="1845.03" y="2030" width="230" height="30" as="geometry" />
        </mxCell>
        <mxCell id="KEK-sTngG19rM-lHNqfz-58" value="" style="edgeStyle=orthogonalEdgeStyle;rounded=0;orthogonalLoop=1;jettySize=auto;html=1;" edge="1" parent="1" source="KEK-sTngG19rM-lHNqfz-55" target="KEK-sTngG19rM-lHNqfz-57">
          <mxGeometry relative="1" as="geometry" />
        </mxCell>
        <mxCell id="KEK-sTngG19rM-lHNqfz-55" value="remotingClient.invokeAsync" style="whiteSpace=wrap;html=1;rounded=0;" vertex="1" parent="1">
          <mxGeometry x="1902.75" y="2200" width="120" height="60" as="geometry" />
        </mxCell>
        <mxCell id="KEK-sTngG19rM-lHNqfz-60" value="" style="edgeStyle=orthogonalEdgeStyle;rounded=0;orthogonalLoop=1;jettySize=auto;html=1;" edge="1" parent="1" source="KEK-sTngG19rM-lHNqfz-57" target="KEK-sTngG19rM-lHNqfz-59">
          <mxGeometry relative="1" as="geometry" />
        </mxCell>
        <mxCell id="KEK-sTngG19rM-lHNqfz-57" value="NettyRemotingAbstract#invokeAsyncImpl" style="whiteSpace=wrap;html=1;rounded=0;" vertex="1" parent="1">
          <mxGeometry x="1845.03" y="2340" width="235.44" height="60" as="geometry" />
        </mxCell>
        <mxCell id="KEK-sTngG19rM-lHNqfz-62" value="" style="edgeStyle=orthogonalEdgeStyle;rounded=0;orthogonalLoop=1;jettySize=auto;html=1;entryX=0.423;entryY=0.017;entryDx=0;entryDy=0;entryPerimeter=0;" edge="1" parent="1" source="KEK-sTngG19rM-lHNqfz-59" target="KEK-sTngG19rM-lHNqfz-81">
          <mxGeometry relative="1" as="geometry">
            <mxPoint x="1962.75" y="2620" as="targetPoint" />
          </mxGeometry>
        </mxCell>
        <mxCell id="KEK-sTngG19rM-lHNqfz-59" value="申请信号量" style="whiteSpace=wrap;html=1;rounded=0;" vertex="1" parent="1">
          <mxGeometry x="1902.75" y="2480" width="120" height="60" as="geometry" />
        </mxCell>
        <mxCell id="KEK-sTngG19rM-lHNqfz-63" value="回调保存在responseTable" style="whiteSpace=wrap;html=1;rounded=0;" vertex="1" parent="1">
          <mxGeometry x="1902.75" y="2830" width="120" height="60" as="geometry" />
        </mxCell>
        <mxCell id="KEK-sTngG19rM-lHNqfz-68" value="" style="edgeStyle=orthogonalEdgeStyle;rounded=0;orthogonalLoop=1;jettySize=auto;html=1;" edge="1" parent="1" source="KEK-sTngG19rM-lHNqfz-65" target="KEK-sTngG19rM-lHNqfz-67">
          <mxGeometry relative="1" as="geometry" />
        </mxCell>
        <mxCell id="KEK-sTngG19rM-lHNqfz-65" value="NettyRemotingAbstract#invokeOnewayImpl" style="whiteSpace=wrap;html=1;rounded=0;" vertex="1" parent="1">
          <mxGeometry x="1540" y="2200" width="120" height="60" as="geometry" />
        </mxCell>
        <mxCell id="KEK-sTngG19rM-lHNqfz-70" value="" style="edgeStyle=orthogonalEdgeStyle;rounded=0;orthogonalLoop=1;jettySize=auto;html=1;entryX=0.084;entryY=-0.017;entryDx=0;entryDy=0;entryPerimeter=0;" edge="1" parent="1" source="KEK-sTngG19rM-lHNqfz-67" target="KEK-sTngG19rM-lHNqfz-81">
          <mxGeometry relative="1" as="geometry">
            <mxPoint x="1600" y="2478" as="targetPoint" />
          </mxGeometry>
        </mxCell>
        <mxCell id="KEK-sTngG19rM-lHNqfz-67" value="申请信号量&amp;nbsp;semaphoreOneway" style="whiteSpace=wrap;html=1;rounded=0;" vertex="1" parent="1">
          <mxGeometry x="1510" y="2338" width="180" height="60" as="geometry" />
        </mxCell>
        <mxCell id="KEK-sTngG19rM-lHNqfz-74" value="" style="edgeStyle=orthogonalEdgeStyle;rounded=0;orthogonalLoop=1;jettySize=auto;html=1;" edge="1" parent="1" source="KEK-sTngG19rM-lHNqfz-71" target="KEK-sTngG19rM-lHNqfz-73">
          <mxGeometry relative="1" as="geometry" />
        </mxCell>
        <mxCell id="KEK-sTngG19rM-lHNqfz-71" value="NettyRemotingClient#invokeSync" style="whiteSpace=wrap;html=1;rounded=0;" vertex="1" parent="1">
          <mxGeometry x="2300" y="2200" width="120" height="60" as="geometry" />
        </mxCell>
        <mxCell id="KEK-sTngG19rM-lHNqfz-76" value="" style="edgeStyle=orthogonalEdgeStyle;rounded=0;orthogonalLoop=1;jettySize=auto;html=1;entryX=0.797;entryY=0.033;entryDx=0;entryDy=0;entryPerimeter=0;" edge="1" parent="1" source="KEK-sTngG19rM-lHNqfz-73" target="KEK-sTngG19rM-lHNqfz-81">
          <mxGeometry relative="1" as="geometry">
            <mxPoint x="2360" y="2470" as="targetPoint" />
          </mxGeometry>
        </mxCell>
        <mxCell id="KEK-sTngG19rM-lHNqfz-73" value=".NettyRemotingAbstract#invokeSyncImpl" style="whiteSpace=wrap;html=1;rounded=0;" vertex="1" parent="1">
          <mxGeometry x="2230" y="2340" width="260" height="50" as="geometry" />
        </mxCell>
        <mxCell id="KEK-sTngG19rM-lHNqfz-80" value="" style="edgeStyle=orthogonalEdgeStyle;rounded=0;orthogonalLoop=1;jettySize=auto;html=1;" edge="1" parent="1" source="KEK-sTngG19rM-lHNqfz-77" target="KEK-sTngG19rM-lHNqfz-79">
          <mxGeometry relative="1" as="geometry" />
        </mxCell>
        <mxCell id="KEK-sTngG19rM-lHNqfz-77" value="等待响应" style="whiteSpace=wrap;html=1;rounded=0;" vertex="1" parent="1">
          <mxGeometry x="2300" y="2800" width="120" height="60" as="geometry" />
        </mxCell>
        <mxCell id="KEK-sTngG19rM-lHNqfz-79" value="返回响应" style="whiteSpace=wrap;html=1;rounded=0;" vertex="1" parent="1">
          <mxGeometry x="2300" y="2940" width="120" height="60" as="geometry" />
        </mxCell>
        <mxCell id="KEK-sTngG19rM-lHNqfz-83" value="" style="edgeStyle=orthogonalEdgeStyle;rounded=0;orthogonalLoop=1;jettySize=auto;html=1;exitX=0.424;exitY=1.05;exitDx=0;exitDy=0;exitPerimeter=0;" edge="1" parent="1" source="KEK-sTngG19rM-lHNqfz-81" target="KEK-sTngG19rM-lHNqfz-63">
          <mxGeometry relative="1" as="geometry" />
        </mxCell>
        <mxCell id="KEK-sTngG19rM-lHNqfz-84" style="edgeStyle=orthogonalEdgeStyle;rounded=0;orthogonalLoop=1;jettySize=auto;html=1;entryX=0.5;entryY=0;entryDx=0;entryDy=0;exitX=0.793;exitY=1.067;exitDx=0;exitDy=0;exitPerimeter=0;" edge="1" parent="1" source="KEK-sTngG19rM-lHNqfz-81" target="KEK-sTngG19rM-lHNqfz-77">
          <mxGeometry relative="1" as="geometry" />
        </mxCell>
        <mxCell id="KEK-sTngG19rM-lHNqfz-81" value="将数据写入netty的channel中" style="rounded=0;whiteSpace=wrap;html=1;" vertex="1" parent="1">
          <mxGeometry x="1510" y="2690" width="1070" height="60" as="geometry" />
        </mxCell>
      </root>
    </mxGraphModel>
  </diagram>
</mxfile>
